<mxfile host="app.diagrams.net" modified="2024-07-10T12:00:29.272Z" agent="Mozilla/5.0 (Macintosh; Intel Mac OS X 10_15_7) AppleWebKit/537.36 (KHTML, like Gecko) Chrome/124.0.0.0 Safari/537.36" etag="Ll0Snm-sMySu-_TgXIfn" version="24.6.4" type="device">
  <diagram id="C5RBs43oDa-KdzZeNtuy" name="Page-1">
    <mxGraphModel dx="1194" dy="790" grid="1" gridSize="10" guides="1" tooltips="1" connect="1" arrows="1" fold="1" page="1" pageScale="1" pageWidth="827" pageHeight="1169" math="0" shadow="0">
      <root>
        <mxCell id="WIyWlLk6GJQsqaUBKTNV-0" />
        <mxCell id="WIyWlLk6GJQsqaUBKTNV-1" parent="WIyWlLk6GJQsqaUBKTNV-0" />
        <mxCell id="OQ_pVq8lj0fpqK9QU77n-28" value="" style="edgeStyle=orthogonalEdgeStyle;rounded=0;orthogonalLoop=1;jettySize=auto;html=1;" edge="1" parent="WIyWlLk6GJQsqaUBKTNV-1" source="WIyWlLk6GJQsqaUBKTNV-3" target="OQ_pVq8lj0fpqK9QU77n-27">
          <mxGeometry relative="1" as="geometry" />
        </mxCell>
        <mxCell id="WIyWlLk6GJQsqaUBKTNV-3" value="Idle" style="rounded=1;whiteSpace=wrap;html=1;fontSize=12;glass=0;strokeWidth=1;shadow=0;" parent="WIyWlLk6GJQsqaUBKTNV-1" vertex="1">
          <mxGeometry x="359" y="360" width="120" height="40" as="geometry" />
        </mxCell>
        <mxCell id="WIyWlLk6GJQsqaUBKTNV-4" value="Yes" style="rounded=0;html=1;jettySize=auto;orthogonalLoop=1;fontSize=11;endArrow=block;endFill=0;endSize=8;strokeWidth=1;shadow=0;labelBackgroundColor=none;edgeStyle=orthogonalEdgeStyle;" parent="WIyWlLk6GJQsqaUBKTNV-1" target="WIyWlLk6GJQsqaUBKTNV-10" edge="1">
          <mxGeometry y="20" relative="1" as="geometry">
            <mxPoint as="offset" />
            <mxPoint x="220" y="250" as="sourcePoint" />
          </mxGeometry>
        </mxCell>
        <mxCell id="WIyWlLk6GJQsqaUBKTNV-5" value="No" style="edgeStyle=orthogonalEdgeStyle;rounded=0;html=1;jettySize=auto;orthogonalLoop=1;fontSize=11;endArrow=block;endFill=0;endSize=8;strokeWidth=1;shadow=0;labelBackgroundColor=none;" parent="WIyWlLk6GJQsqaUBKTNV-1" target="WIyWlLk6GJQsqaUBKTNV-7" edge="1">
          <mxGeometry y="10" relative="1" as="geometry">
            <mxPoint as="offset" />
            <mxPoint x="270" y="210" as="sourcePoint" />
          </mxGeometry>
        </mxCell>
        <mxCell id="WIyWlLk6GJQsqaUBKTNV-8" value="No" style="rounded=0;html=1;jettySize=auto;orthogonalLoop=1;fontSize=11;endArrow=block;endFill=0;endSize=8;strokeWidth=1;shadow=0;labelBackgroundColor=none;edgeStyle=orthogonalEdgeStyle;" parent="WIyWlLk6GJQsqaUBKTNV-1" target="WIyWlLk6GJQsqaUBKTNV-11" edge="1">
          <mxGeometry x="0.3333" y="20" relative="1" as="geometry">
            <mxPoint as="offset" />
            <mxPoint x="220" y="370" as="sourcePoint" />
          </mxGeometry>
        </mxCell>
        <mxCell id="WIyWlLk6GJQsqaUBKTNV-9" value="Yes" style="edgeStyle=orthogonalEdgeStyle;rounded=0;html=1;jettySize=auto;orthogonalLoop=1;fontSize=11;endArrow=block;endFill=0;endSize=8;strokeWidth=1;shadow=0;labelBackgroundColor=none;" parent="WIyWlLk6GJQsqaUBKTNV-1" source="WIyWlLk6GJQsqaUBKTNV-10" edge="1">
          <mxGeometry y="10" relative="1" as="geometry">
            <mxPoint as="offset" />
            <mxPoint x="320" y="330" as="targetPoint" />
          </mxGeometry>
        </mxCell>
        <mxCell id="OQ_pVq8lj0fpqK9QU77n-1" value="do nothing" style="rounded=1;whiteSpace=wrap;html=1;fillColor=#f8cecc;strokeColor=#b85450;" vertex="1" parent="WIyWlLk6GJQsqaUBKTNV-1">
          <mxGeometry x="438" y="420" width="70" height="20" as="geometry" />
        </mxCell>
        <mxCell id="OQ_pVq8lj0fpqK9QU77n-5" value="" style="endArrow=classic;html=1;rounded=0;entryX=0.75;entryY=1;entryDx=0;entryDy=0;exitX=1;exitY=0;exitDx=0;exitDy=0;" edge="1" parent="WIyWlLk6GJQsqaUBKTNV-1" source="OQ_pVq8lj0fpqK9QU77n-1" target="WIyWlLk6GJQsqaUBKTNV-3">
          <mxGeometry width="50" height="50" relative="1" as="geometry">
            <mxPoint x="491" y="420" as="sourcePoint" />
            <mxPoint x="460" y="400" as="targetPoint" />
          </mxGeometry>
        </mxCell>
        <mxCell id="OQ_pVq8lj0fpqK9QU77n-6" value="" style="endArrow=classic;html=1;rounded=0;exitX=0.5;exitY=1;exitDx=0;exitDy=0;entryX=0.5;entryY=0;entryDx=0;entryDy=0;" edge="1" parent="WIyWlLk6GJQsqaUBKTNV-1" source="WIyWlLk6GJQsqaUBKTNV-3" target="OQ_pVq8lj0fpqK9QU77n-1">
          <mxGeometry width="50" height="50" relative="1" as="geometry">
            <mxPoint x="410" y="450" as="sourcePoint" />
            <mxPoint x="460" y="400" as="targetPoint" />
          </mxGeometry>
        </mxCell>
        <mxCell id="OQ_pVq8lj0fpqK9QU77n-8" value="forward" style="rounded=1;whiteSpace=wrap;html=1;fillColor=#f8cecc;strokeColor=#b85450;" vertex="1" parent="WIyWlLk6GJQsqaUBKTNV-1">
          <mxGeometry x="359" y="420" width="70" height="20" as="geometry" />
        </mxCell>
        <mxCell id="OQ_pVq8lj0fpqK9QU77n-9" value="Move Forward" style="rounded=1;whiteSpace=wrap;html=1;fontSize=12;glass=0;strokeWidth=1;shadow=0;" vertex="1" parent="WIyWlLk6GJQsqaUBKTNV-1">
          <mxGeometry x="359" y="460" width="120" height="40" as="geometry" />
        </mxCell>
        <mxCell id="OQ_pVq8lj0fpqK9QU77n-10" value="" style="endArrow=classic;html=1;rounded=0;exitX=0.5;exitY=1;exitDx=0;exitDy=0;entryX=0.75;entryY=0;entryDx=0;entryDy=0;" edge="1" parent="WIyWlLk6GJQsqaUBKTNV-1" source="WIyWlLk6GJQsqaUBKTNV-3" target="OQ_pVq8lj0fpqK9QU77n-8">
          <mxGeometry width="50" height="50" relative="1" as="geometry">
            <mxPoint x="410" y="450" as="sourcePoint" />
            <mxPoint x="460" y="400" as="targetPoint" />
          </mxGeometry>
        </mxCell>
        <mxCell id="OQ_pVq8lj0fpqK9QU77n-11" value="" style="endArrow=classic;html=1;rounded=0;exitX=0.753;exitY=1.141;exitDx=0;exitDy=0;exitPerimeter=0;entryX=0.524;entryY=0.025;entryDx=0;entryDy=0;entryPerimeter=0;" edge="1" parent="WIyWlLk6GJQsqaUBKTNV-1" source="OQ_pVq8lj0fpqK9QU77n-8" target="OQ_pVq8lj0fpqK9QU77n-9">
          <mxGeometry width="50" height="50" relative="1" as="geometry">
            <mxPoint x="439" y="450" as="sourcePoint" />
            <mxPoint x="489" y="400" as="targetPoint" />
          </mxGeometry>
        </mxCell>
        <mxCell id="OQ_pVq8lj0fpqK9QU77n-13" value="" style="endArrow=classic;html=1;rounded=0;exitX=0.75;exitY=0;exitDx=0;exitDy=0;" edge="1" parent="WIyWlLk6GJQsqaUBKTNV-1" source="OQ_pVq8lj0fpqK9QU77n-9">
          <mxGeometry width="50" height="50" relative="1" as="geometry">
            <mxPoint x="439" y="450" as="sourcePoint" />
            <mxPoint x="479" y="440" as="targetPoint" />
          </mxGeometry>
        </mxCell>
        <mxCell id="OQ_pVq8lj0fpqK9QU77n-14" value="up" style="rounded=1;whiteSpace=wrap;html=1;fillColor=#f8cecc;strokeColor=#b85450;" vertex="1" parent="WIyWlLk6GJQsqaUBKTNV-1">
          <mxGeometry x="384" y="320" width="70" height="20" as="geometry" />
        </mxCell>
        <mxCell id="OQ_pVq8lj0fpqK9QU77n-15" value="Jump" style="rounded=1;whiteSpace=wrap;html=1;fontSize=12;glass=0;strokeWidth=1;shadow=0;" vertex="1" parent="WIyWlLk6GJQsqaUBKTNV-1">
          <mxGeometry x="359" y="260" width="120" height="40" as="geometry" />
        </mxCell>
        <mxCell id="OQ_pVq8lj0fpqK9QU77n-16" value="" style="endArrow=classic;html=1;rounded=0;exitX=0.25;exitY=0;exitDx=0;exitDy=0;entryX=0.25;entryY=1;entryDx=0;entryDy=0;" edge="1" parent="WIyWlLk6GJQsqaUBKTNV-1" source="OQ_pVq8lj0fpqK9QU77n-9" target="OQ_pVq8lj0fpqK9QU77n-8">
          <mxGeometry width="50" height="50" relative="1" as="geometry">
            <mxPoint x="419" y="350" as="sourcePoint" />
            <mxPoint x="469" y="300" as="targetPoint" />
          </mxGeometry>
        </mxCell>
        <mxCell id="OQ_pVq8lj0fpqK9QU77n-17" value="" style="endArrow=classic;html=1;rounded=0;exitX=0.5;exitY=0;exitDx=0;exitDy=0;entryX=0.5;entryY=1;entryDx=0;entryDy=0;" edge="1" parent="WIyWlLk6GJQsqaUBKTNV-1" source="WIyWlLk6GJQsqaUBKTNV-3" target="OQ_pVq8lj0fpqK9QU77n-14">
          <mxGeometry width="50" height="50" relative="1" as="geometry">
            <mxPoint x="390" y="380" as="sourcePoint" />
            <mxPoint x="440" y="330" as="targetPoint" />
          </mxGeometry>
        </mxCell>
        <mxCell id="OQ_pVq8lj0fpqK9QU77n-24" value="" style="endArrow=classic;html=1;rounded=0;exitX=0.5;exitY=0;exitDx=0;exitDy=0;entryX=0.5;entryY=1;entryDx=0;entryDy=0;" edge="1" parent="WIyWlLk6GJQsqaUBKTNV-1" source="OQ_pVq8lj0fpqK9QU77n-14" target="OQ_pVq8lj0fpqK9QU77n-15">
          <mxGeometry width="50" height="50" relative="1" as="geometry">
            <mxPoint x="429" y="370" as="sourcePoint" />
            <mxPoint x="429" y="350" as="targetPoint" />
          </mxGeometry>
        </mxCell>
        <mxCell id="OQ_pVq8lj0fpqK9QU77n-29" value="" style="edgeStyle=orthogonalEdgeStyle;rounded=0;orthogonalLoop=1;jettySize=auto;html=1;" edge="1" parent="WIyWlLk6GJQsqaUBKTNV-1" source="OQ_pVq8lj0fpqK9QU77n-25" target="OQ_pVq8lj0fpqK9QU77n-27">
          <mxGeometry relative="1" as="geometry" />
        </mxCell>
        <mxCell id="OQ_pVq8lj0fpqK9QU77n-25" value="backward" style="rounded=1;whiteSpace=wrap;html=1;fillColor=#f8cecc;strokeColor=#b85450;" vertex="1" parent="WIyWlLk6GJQsqaUBKTNV-1">
          <mxGeometry x="270" y="370" width="70" height="20" as="geometry" />
        </mxCell>
        <mxCell id="OQ_pVq8lj0fpqK9QU77n-26" value="" style="endArrow=classic;html=1;rounded=0;exitX=0;exitY=0.5;exitDx=0;exitDy=0;entryX=1;entryY=0.5;entryDx=0;entryDy=0;" edge="1" parent="WIyWlLk6GJQsqaUBKTNV-1" source="WIyWlLk6GJQsqaUBKTNV-3" target="OQ_pVq8lj0fpqK9QU77n-25">
          <mxGeometry width="50" height="50" relative="1" as="geometry">
            <mxPoint x="429" y="410" as="sourcePoint" />
            <mxPoint x="422" y="430" as="targetPoint" />
          </mxGeometry>
        </mxCell>
        <mxCell id="OQ_pVq8lj0fpqK9QU77n-27" value="Move Backward/Block" style="rounded=1;whiteSpace=wrap;html=1;fontSize=12;glass=0;strokeWidth=1;shadow=0;" vertex="1" parent="WIyWlLk6GJQsqaUBKTNV-1">
          <mxGeometry x="120" y="360" width="120" height="40" as="geometry" />
        </mxCell>
        <mxCell id="OQ_pVq8lj0fpqK9QU77n-31" value="" style="edgeStyle=orthogonalEdgeStyle;rounded=0;orthogonalLoop=1;jettySize=auto;html=1;entryX=0.25;entryY=1;entryDx=0;entryDy=0;exitX=1;exitY=0.75;exitDx=0;exitDy=0;" edge="1" parent="WIyWlLk6GJQsqaUBKTNV-1" source="OQ_pVq8lj0fpqK9QU77n-27" target="OQ_pVq8lj0fpqK9QU77n-25">
          <mxGeometry relative="1" as="geometry">
            <mxPoint x="280" y="390" as="sourcePoint" />
            <mxPoint x="260" y="390" as="targetPoint" />
            <Array as="points">
              <mxPoint x="240" y="410" />
              <mxPoint x="288" y="410" />
              <mxPoint x="288" y="400" />
              <mxPoint x="287" y="400" />
            </Array>
          </mxGeometry>
        </mxCell>
        <mxCell id="OQ_pVq8lj0fpqK9QU77n-32" value="do nothing" style="rounded=1;whiteSpace=wrap;html=1;fillColor=#f8cecc;strokeColor=#b85450;" vertex="1" parent="WIyWlLk6GJQsqaUBKTNV-1">
          <mxGeometry x="270" y="320" width="70" height="20" as="geometry" />
        </mxCell>
        <mxCell id="OQ_pVq8lj0fpqK9QU77n-33" value="" style="endArrow=classic;html=1;rounded=0;exitX=1;exitY=1;exitDx=0;exitDy=0;entryX=0.25;entryY=0;entryDx=0;entryDy=0;" edge="1" parent="WIyWlLk6GJQsqaUBKTNV-1" source="OQ_pVq8lj0fpqK9QU77n-32" target="WIyWlLk6GJQsqaUBKTNV-3">
          <mxGeometry width="50" height="50" relative="1" as="geometry">
            <mxPoint x="410" y="450" as="sourcePoint" />
            <mxPoint x="460" y="400" as="targetPoint" />
          </mxGeometry>
        </mxCell>
        <mxCell id="OQ_pVq8lj0fpqK9QU77n-34" value="" style="endArrow=classic;html=1;rounded=0;exitX=0;exitY=1;exitDx=0;exitDy=0;entryX=1;entryY=0;entryDx=0;entryDy=0;" edge="1" parent="WIyWlLk6GJQsqaUBKTNV-1" source="OQ_pVq8lj0fpqK9QU77n-15" target="OQ_pVq8lj0fpqK9QU77n-32">
          <mxGeometry width="50" height="50" relative="1" as="geometry">
            <mxPoint x="350" y="350" as="sourcePoint" />
            <mxPoint x="399" y="370" as="targetPoint" />
          </mxGeometry>
        </mxCell>
        <mxCell id="OQ_pVq8lj0fpqK9QU77n-35" value="" style="endArrow=classic;html=1;rounded=0;exitX=0.966;exitY=0.002;exitDx=0;exitDy=0;entryX=0;entryY=1;entryDx=0;entryDy=0;exitPerimeter=0;" edge="1" parent="WIyWlLk6GJQsqaUBKTNV-1" source="OQ_pVq8lj0fpqK9QU77n-27" target="OQ_pVq8lj0fpqK9QU77n-32">
          <mxGeometry width="50" height="50" relative="1" as="geometry">
            <mxPoint x="369" y="310" as="sourcePoint" />
            <mxPoint x="350" y="330" as="targetPoint" />
          </mxGeometry>
        </mxCell>
        <mxCell id="OQ_pVq8lj0fpqK9QU77n-36" value="" style="endArrow=classic;html=1;rounded=0;exitX=0;exitY=0;exitDx=0;exitDy=0;entryX=0.75;entryY=1;entryDx=0;entryDy=0;" edge="1" parent="WIyWlLk6GJQsqaUBKTNV-1" source="OQ_pVq8lj0fpqK9QU77n-9" target="OQ_pVq8lj0fpqK9QU77n-25">
          <mxGeometry width="50" height="50" relative="1" as="geometry">
            <mxPoint x="280" y="500" as="sourcePoint" />
            <mxPoint x="330" y="450" as="targetPoint" />
          </mxGeometry>
        </mxCell>
        <mxCell id="OQ_pVq8lj0fpqK9QU77n-38" value="" style="endArrow=classic;html=1;rounded=0;exitX=0.75;exitY=1;exitDx=0;exitDy=0;entryX=0;entryY=0.5;entryDx=0;entryDy=0;" edge="1" parent="WIyWlLk6GJQsqaUBKTNV-1" source="OQ_pVq8lj0fpqK9QU77n-27" target="OQ_pVq8lj0fpqK9QU77n-8">
          <mxGeometry width="50" height="50" relative="1" as="geometry">
            <mxPoint x="210" y="490" as="sourcePoint" />
            <mxPoint x="260" y="440" as="targetPoint" />
            <Array as="points">
              <mxPoint x="240" y="420" />
              <mxPoint x="280" y="430" />
            </Array>
          </mxGeometry>
        </mxCell>
        <mxCell id="OQ_pVq8lj0fpqK9QU77n-39" value="up" style="rounded=1;whiteSpace=wrap;html=1;fillColor=#f8cecc;strokeColor=#b85450;" vertex="1" parent="WIyWlLk6GJQsqaUBKTNV-1">
          <mxGeometry x="520" y="420" width="70" height="20" as="geometry" />
        </mxCell>
        <mxCell id="OQ_pVq8lj0fpqK9QU77n-40" value="" style="endArrow=classic;html=1;rounded=0;entryX=0.5;entryY=1;entryDx=0;entryDy=0;" edge="1" parent="WIyWlLk6GJQsqaUBKTNV-1" target="OQ_pVq8lj0fpqK9QU77n-39">
          <mxGeometry width="50" height="50" relative="1" as="geometry">
            <mxPoint x="480" y="480" as="sourcePoint" />
            <mxPoint x="530" y="450" as="targetPoint" />
          </mxGeometry>
        </mxCell>
        <mxCell id="OQ_pVq8lj0fpqK9QU77n-41" value="" style="endArrow=classic;html=1;rounded=0;exitX=0.5;exitY=0;exitDx=0;exitDy=0;entryX=0.75;entryY=1;entryDx=0;entryDy=0;" edge="1" parent="WIyWlLk6GJQsqaUBKTNV-1" source="OQ_pVq8lj0fpqK9QU77n-39" target="OQ_pVq8lj0fpqK9QU77n-15">
          <mxGeometry width="50" height="50" relative="1" as="geometry">
            <mxPoint x="560" y="410" as="sourcePoint" />
            <mxPoint x="610" y="360" as="targetPoint" />
          </mxGeometry>
        </mxCell>
        <mxCell id="OQ_pVq8lj0fpqK9QU77n-42" value="" style="endArrow=classic;html=1;rounded=0;entryX=0;entryY=0.5;entryDx=0;entryDy=0;" edge="1" parent="WIyWlLk6GJQsqaUBKTNV-1" target="OQ_pVq8lj0fpqK9QU77n-14">
          <mxGeometry width="50" height="50" relative="1" as="geometry">
            <mxPoint x="240" y="380" as="sourcePoint" />
            <mxPoint x="270" y="290" as="targetPoint" />
          </mxGeometry>
        </mxCell>
        <mxCell id="OQ_pVq8lj0fpqK9QU77n-43" value="Crouch" style="rounded=1;whiteSpace=wrap;html=1;fontSize=12;glass=0;strokeWidth=1;shadow=0;" vertex="1" parent="WIyWlLk6GJQsqaUBKTNV-1">
          <mxGeometry x="150" y="520" width="120" height="40" as="geometry" />
        </mxCell>
        <mxCell id="OQ_pVq8lj0fpqK9QU77n-44" value="down" style="rounded=1;whiteSpace=wrap;html=1;fillColor=#f8cecc;strokeColor=#b85450;" vertex="1" parent="WIyWlLk6GJQsqaUBKTNV-1">
          <mxGeometry x="250" y="460" width="70" height="20" as="geometry" />
        </mxCell>
        <mxCell id="OQ_pVq8lj0fpqK9QU77n-45" value="" style="endArrow=classic;html=1;rounded=0;exitX=0;exitY=1;exitDx=0;exitDy=0;entryX=0.5;entryY=0;entryDx=0;entryDy=0;" edge="1" parent="WIyWlLk6GJQsqaUBKTNV-1" source="WIyWlLk6GJQsqaUBKTNV-3" target="OQ_pVq8lj0fpqK9QU77n-44">
          <mxGeometry width="50" height="50" relative="1" as="geometry">
            <mxPoint x="400" y="410" as="sourcePoint" />
            <mxPoint x="450" y="360" as="targetPoint" />
          </mxGeometry>
        </mxCell>
        <mxCell id="OQ_pVq8lj0fpqK9QU77n-46" value="" style="endArrow=classic;html=1;rounded=0;exitX=0.5;exitY=1;exitDx=0;exitDy=0;entryX=0.75;entryY=0;entryDx=0;entryDy=0;" edge="1" parent="WIyWlLk6GJQsqaUBKTNV-1" source="OQ_pVq8lj0fpqK9QU77n-44" target="OQ_pVq8lj0fpqK9QU77n-43">
          <mxGeometry width="50" height="50" relative="1" as="geometry">
            <mxPoint x="369" y="410" as="sourcePoint" />
            <mxPoint x="295" y="470" as="targetPoint" />
          </mxGeometry>
        </mxCell>
        <mxCell id="OQ_pVq8lj0fpqK9QU77n-47" value="" style="endArrow=classic;html=1;rounded=0;exitX=0.5;exitY=1;exitDx=0;exitDy=0;entryX=0;entryY=0;entryDx=0;entryDy=0;" edge="1" parent="WIyWlLk6GJQsqaUBKTNV-1" source="OQ_pVq8lj0fpqK9QU77n-27" target="OQ_pVq8lj0fpqK9QU77n-44">
          <mxGeometry width="50" height="50" relative="1" as="geometry">
            <mxPoint x="170" y="470" as="sourcePoint" />
            <mxPoint x="220" y="420" as="targetPoint" />
          </mxGeometry>
        </mxCell>
        <mxCell id="OQ_pVq8lj0fpqK9QU77n-48" value="" style="endArrow=classic;html=1;rounded=0;exitX=0;exitY=0.5;exitDx=0;exitDy=0;entryX=1;entryY=0.5;entryDx=0;entryDy=0;" edge="1" parent="WIyWlLk6GJQsqaUBKTNV-1" source="OQ_pVq8lj0fpqK9QU77n-9" target="OQ_pVq8lj0fpqK9QU77n-44">
          <mxGeometry width="50" height="50" relative="1" as="geometry">
            <mxPoint x="340" y="550" as="sourcePoint" />
            <mxPoint x="390" y="500" as="targetPoint" />
          </mxGeometry>
        </mxCell>
        <mxCell id="OQ_pVq8lj0fpqK9QU77n-49" value="" style="endArrow=classic;html=1;rounded=0;entryX=0.25;entryY=1;entryDx=0;entryDy=0;" edge="1" parent="WIyWlLk6GJQsqaUBKTNV-1" target="OQ_pVq8lj0fpqK9QU77n-44">
          <mxGeometry width="50" height="50" relative="1" as="geometry">
            <mxPoint x="220" y="520" as="sourcePoint" />
            <mxPoint x="270" y="470" as="targetPoint" />
          </mxGeometry>
        </mxCell>
        <mxCell id="OQ_pVq8lj0fpqK9QU77n-50" value="" style="endArrow=classic;html=1;rounded=0;" edge="1" parent="WIyWlLk6GJQsqaUBKTNV-1">
          <mxGeometry width="50" height="50" relative="1" as="geometry">
            <mxPoint x="190" y="520" as="sourcePoint" />
            <mxPoint x="200" y="480" as="targetPoint" />
          </mxGeometry>
        </mxCell>
        <mxCell id="OQ_pVq8lj0fpqK9QU77n-51" value="do nothing" style="rounded=1;whiteSpace=wrap;html=1;fillColor=#f8cecc;strokeColor=#b85450;" vertex="1" parent="WIyWlLk6GJQsqaUBKTNV-1">
          <mxGeometry x="160" y="460" width="70" height="20" as="geometry" />
        </mxCell>
        <mxCell id="OQ_pVq8lj0fpqK9QU77n-52" value="" style="endArrow=classic;html=1;rounded=0;entryX=0.25;entryY=1;entryDx=0;entryDy=0;" edge="1" parent="WIyWlLk6GJQsqaUBKTNV-1" target="WIyWlLk6GJQsqaUBKTNV-3">
          <mxGeometry width="50" height="50" relative="1" as="geometry">
            <mxPoint x="200" y="460" as="sourcePoint" />
            <mxPoint x="250" y="410" as="targetPoint" />
          </mxGeometry>
        </mxCell>
        <mxCell id="OQ_pVq8lj0fpqK9QU77n-53" value="left punch" style="rounded=1;whiteSpace=wrap;html=1;fillColor=#f8cecc;strokeColor=#b85450;" vertex="1" parent="WIyWlLk6GJQsqaUBKTNV-1">
          <mxGeometry x="329" y="560" width="70" height="20" as="geometry" />
        </mxCell>
        <mxCell id="OQ_pVq8lj0fpqK9QU77n-54" value="right punch" style="rounded=1;whiteSpace=wrap;html=1;fillColor=#f8cecc;strokeColor=#b85450;" vertex="1" parent="WIyWlLk6GJQsqaUBKTNV-1">
          <mxGeometry x="329" y="620" width="70" height="20" as="geometry" />
        </mxCell>
        <mxCell id="OQ_pVq8lj0fpqK9QU77n-55" value="left kick" style="rounded=1;whiteSpace=wrap;html=1;fillColor=#f8cecc;strokeColor=#b85450;" vertex="1" parent="WIyWlLk6GJQsqaUBKTNV-1">
          <mxGeometry x="329" y="675" width="70" height="20" as="geometry" />
        </mxCell>
        <mxCell id="OQ_pVq8lj0fpqK9QU77n-56" value="right kick" style="rounded=1;whiteSpace=wrap;html=1;fillColor=#f8cecc;strokeColor=#b85450;" vertex="1" parent="WIyWlLk6GJQsqaUBKTNV-1">
          <mxGeometry x="329" y="730" width="70" height="20" as="geometry" />
        </mxCell>
        <mxCell id="OQ_pVq8lj0fpqK9QU77n-58" value="all states" style="rounded=1;whiteSpace=wrap;html=1;" vertex="1" parent="WIyWlLk6GJQsqaUBKTNV-1">
          <mxGeometry x="153" y="620" width="120" height="60" as="geometry" />
        </mxCell>
        <mxCell id="OQ_pVq8lj0fpqK9QU77n-59" value="" style="endArrow=classic;html=1;rounded=0;entryX=0;entryY=0.5;entryDx=0;entryDy=0;exitX=1;exitY=0.25;exitDx=0;exitDy=0;" edge="1" parent="WIyWlLk6GJQsqaUBKTNV-1" source="OQ_pVq8lj0fpqK9QU77n-58" target="OQ_pVq8lj0fpqK9QU77n-53">
          <mxGeometry width="50" height="50" relative="1" as="geometry">
            <mxPoint x="273" y="620" as="sourcePoint" />
            <mxPoint x="249" y="510" as="targetPoint" />
          </mxGeometry>
        </mxCell>
        <mxCell id="OQ_pVq8lj0fpqK9QU77n-60" value="" style="endArrow=classic;html=1;rounded=0;exitX=1;exitY=0.25;exitDx=0;exitDy=0;entryX=0;entryY=0.5;entryDx=0;entryDy=0;" edge="1" parent="WIyWlLk6GJQsqaUBKTNV-1" source="OQ_pVq8lj0fpqK9QU77n-58" target="OQ_pVq8lj0fpqK9QU77n-54">
          <mxGeometry width="50" height="50" relative="1" as="geometry">
            <mxPoint x="283" y="630" as="sourcePoint" />
            <mxPoint x="339" y="590" as="targetPoint" />
          </mxGeometry>
        </mxCell>
        <mxCell id="OQ_pVq8lj0fpqK9QU77n-61" value="" style="endArrow=classic;html=1;rounded=0;entryX=0;entryY=0.5;entryDx=0;entryDy=0;exitX=1;exitY=0.75;exitDx=0;exitDy=0;" edge="1" parent="WIyWlLk6GJQsqaUBKTNV-1" source="OQ_pVq8lj0fpqK9QU77n-58" target="OQ_pVq8lj0fpqK9QU77n-55">
          <mxGeometry width="50" height="50" relative="1" as="geometry">
            <mxPoint x="289" y="650" as="sourcePoint" />
            <mxPoint x="339" y="650" as="targetPoint" />
          </mxGeometry>
        </mxCell>
        <mxCell id="OQ_pVq8lj0fpqK9QU77n-62" value="" style="endArrow=classic;html=1;rounded=0;entryX=0;entryY=0;entryDx=0;entryDy=0;exitX=1;exitY=0.75;exitDx=0;exitDy=0;" edge="1" parent="WIyWlLk6GJQsqaUBKTNV-1" source="OQ_pVq8lj0fpqK9QU77n-58" target="OQ_pVq8lj0fpqK9QU77n-56">
          <mxGeometry width="50" height="50" relative="1" as="geometry">
            <mxPoint x="279" y="670" as="sourcePoint" />
            <mxPoint x="339" y="705" as="targetPoint" />
          </mxGeometry>
        </mxCell>
        <mxCell id="OQ_pVq8lj0fpqK9QU77n-64" value="left punch" style="rounded=1;whiteSpace=wrap;html=1;fontSize=12;glass=0;strokeWidth=1;shadow=0;" vertex="1" parent="WIyWlLk6GJQsqaUBKTNV-1">
          <mxGeometry x="443" y="550" width="120" height="40" as="geometry" />
        </mxCell>
        <mxCell id="OQ_pVq8lj0fpqK9QU77n-65" value="right punch" style="rounded=1;whiteSpace=wrap;html=1;fontSize=12;glass=0;strokeWidth=1;shadow=0;" vertex="1" parent="WIyWlLk6GJQsqaUBKTNV-1">
          <mxGeometry x="443" y="610" width="120" height="40" as="geometry" />
        </mxCell>
        <mxCell id="OQ_pVq8lj0fpqK9QU77n-81" value="" style="edgeStyle=orthogonalEdgeStyle;rounded=0;orthogonalLoop=1;jettySize=auto;html=1;entryX=1;entryY=1;entryDx=0;entryDy=0;entryPerimeter=0;" edge="1" parent="WIyWlLk6GJQsqaUBKTNV-1" source="OQ_pVq8lj0fpqK9QU77n-66" target="OQ_pVq8lj0fpqK9QU77n-75">
          <mxGeometry relative="1" as="geometry">
            <Array as="points">
              <mxPoint x="583" y="695" />
              <mxPoint x="583" y="660" />
            </Array>
          </mxGeometry>
        </mxCell>
        <mxCell id="OQ_pVq8lj0fpqK9QU77n-66" value="left kick" style="rounded=1;whiteSpace=wrap;html=1;fontSize=12;glass=0;strokeWidth=1;shadow=0;" vertex="1" parent="WIyWlLk6GJQsqaUBKTNV-1">
          <mxGeometry x="443" y="675" width="120" height="40" as="geometry" />
        </mxCell>
        <mxCell id="OQ_pVq8lj0fpqK9QU77n-80" value="" style="edgeStyle=orthogonalEdgeStyle;rounded=0;orthogonalLoop=1;jettySize=auto;html=1;entryX=0.922;entryY=0.012;entryDx=0;entryDy=0;entryPerimeter=0;" edge="1" parent="WIyWlLk6GJQsqaUBKTNV-1" source="OQ_pVq8lj0fpqK9QU77n-67" target="OQ_pVq8lj0fpqK9QU77n-75">
          <mxGeometry relative="1" as="geometry" />
        </mxCell>
        <mxCell id="OQ_pVq8lj0fpqK9QU77n-67" value="right kick" style="rounded=1;whiteSpace=wrap;html=1;fontSize=12;glass=0;strokeWidth=1;shadow=0;" vertex="1" parent="WIyWlLk6GJQsqaUBKTNV-1">
          <mxGeometry x="443" y="730" width="120" height="40" as="geometry" />
        </mxCell>
        <mxCell id="OQ_pVq8lj0fpqK9QU77n-68" value="" style="endArrow=classic;html=1;rounded=0;entryX=0;entryY=0.25;entryDx=0;entryDy=0;exitX=1;exitY=0.5;exitDx=0;exitDy=0;" edge="1" parent="WIyWlLk6GJQsqaUBKTNV-1" source="OQ_pVq8lj0fpqK9QU77n-56" target="OQ_pVq8lj0fpqK9QU77n-67">
          <mxGeometry width="50" height="50" relative="1" as="geometry">
            <mxPoint x="283" y="675" as="sourcePoint" />
            <mxPoint x="339" y="740" as="targetPoint" />
          </mxGeometry>
        </mxCell>
        <mxCell id="OQ_pVq8lj0fpqK9QU77n-69" value="" style="endArrow=classic;html=1;rounded=0;entryX=0;entryY=0.25;entryDx=0;entryDy=0;exitX=1;exitY=0.5;exitDx=0;exitDy=0;" edge="1" parent="WIyWlLk6GJQsqaUBKTNV-1" source="OQ_pVq8lj0fpqK9QU77n-55" target="OQ_pVq8lj0fpqK9QU77n-66">
          <mxGeometry width="50" height="50" relative="1" as="geometry">
            <mxPoint x="409" y="750" as="sourcePoint" />
            <mxPoint x="453" y="750" as="targetPoint" />
          </mxGeometry>
        </mxCell>
        <mxCell id="OQ_pVq8lj0fpqK9QU77n-70" value="" style="endArrow=classic;html=1;rounded=0;entryX=0;entryY=0.5;entryDx=0;entryDy=0;exitX=1;exitY=0.5;exitDx=0;exitDy=0;" edge="1" parent="WIyWlLk6GJQsqaUBKTNV-1" source="OQ_pVq8lj0fpqK9QU77n-54" target="OQ_pVq8lj0fpqK9QU77n-65">
          <mxGeometry width="50" height="50" relative="1" as="geometry">
            <mxPoint x="409" y="695" as="sourcePoint" />
            <mxPoint x="453" y="695" as="targetPoint" />
          </mxGeometry>
        </mxCell>
        <mxCell id="OQ_pVq8lj0fpqK9QU77n-71" value="" style="endArrow=classic;html=1;rounded=0;exitX=1;exitY=0.5;exitDx=0;exitDy=0;" edge="1" parent="WIyWlLk6GJQsqaUBKTNV-1" source="OQ_pVq8lj0fpqK9QU77n-53" target="OQ_pVq8lj0fpqK9QU77n-64">
          <mxGeometry width="50" height="50" relative="1" as="geometry">
            <mxPoint x="409" y="640" as="sourcePoint" />
            <mxPoint x="453" y="640" as="targetPoint" />
          </mxGeometry>
        </mxCell>
        <mxCell id="OQ_pVq8lj0fpqK9QU77n-73" value="" style="strokeWidth=2;html=1;shape=mxgraph.flowchart.annotation_2;align=left;labelPosition=right;pointerEvents=1;direction=west;" vertex="1" parent="WIyWlLk6GJQsqaUBKTNV-1">
          <mxGeometry x="603" y="550" width="50" height="100" as="geometry" />
        </mxCell>
        <mxCell id="OQ_pVq8lj0fpqK9QU77n-85" value="" style="edgeStyle=orthogonalEdgeStyle;rounded=0;orthogonalLoop=1;jettySize=auto;html=1;" edge="1" parent="WIyWlLk6GJQsqaUBKTNV-1" source="OQ_pVq8lj0fpqK9QU77n-75">
          <mxGeometry relative="1" as="geometry">
            <mxPoint x="673" y="600" as="targetPoint" />
          </mxGeometry>
        </mxCell>
        <mxCell id="OQ_pVq8lj0fpqK9QU77n-75" value="" style="strokeWidth=2;html=1;shape=mxgraph.flowchart.annotation_2;align=left;labelPosition=right;pointerEvents=1;direction=west;" vertex="1" parent="WIyWlLk6GJQsqaUBKTNV-1">
          <mxGeometry x="603" y="660" width="50" height="100" as="geometry" />
        </mxCell>
        <mxCell id="OQ_pVq8lj0fpqK9QU77n-82" value="" style="edgeStyle=orthogonalEdgeStyle;rounded=0;orthogonalLoop=1;jettySize=auto;html=1;entryX=1;entryY=1;entryDx=0;entryDy=0;entryPerimeter=0;exitX=0.984;exitY=0.904;exitDx=0;exitDy=0;exitPerimeter=0;" edge="1" parent="WIyWlLk6GJQsqaUBKTNV-1" source="OQ_pVq8lj0fpqK9QU77n-64">
          <mxGeometry relative="1" as="geometry">
            <mxPoint x="563" y="586" as="sourcePoint" />
            <mxPoint x="603" y="551" as="targetPoint" />
            <Array as="points">
              <mxPoint x="583" y="586" />
              <mxPoint x="583" y="551" />
            </Array>
          </mxGeometry>
        </mxCell>
        <mxCell id="OQ_pVq8lj0fpqK9QU77n-83" value="" style="edgeStyle=orthogonalEdgeStyle;rounded=0;orthogonalLoop=1;jettySize=auto;html=1;entryX=1;entryY=0;entryDx=0;entryDy=0;entryPerimeter=0;exitX=1;exitY=0.75;exitDx=0;exitDy=0;" edge="1" parent="WIyWlLk6GJQsqaUBKTNV-1" source="OQ_pVq8lj0fpqK9QU77n-65" target="OQ_pVq8lj0fpqK9QU77n-73">
          <mxGeometry relative="1" as="geometry">
            <mxPoint x="583" y="630" as="sourcePoint" />
            <mxPoint x="607" y="650" as="targetPoint" />
            <Array as="points">
              <mxPoint x="563" y="641" />
              <mxPoint x="584" y="641" />
              <mxPoint x="584" y="650" />
            </Array>
          </mxGeometry>
        </mxCell>
        <mxCell id="OQ_pVq8lj0fpqK9QU77n-86" value="" style="edgeStyle=orthogonalEdgeStyle;rounded=0;orthogonalLoop=1;jettySize=auto;html=1;exitX=0;exitY=0.5;exitDx=0;exitDy=0;exitPerimeter=0;entryX=0.929;entryY=1.15;entryDx=0;entryDy=0;entryPerimeter=0;" edge="1" parent="WIyWlLk6GJQsqaUBKTNV-1" source="OQ_pVq8lj0fpqK9QU77n-73" target="OQ_pVq8lj0fpqK9QU77n-1">
          <mxGeometry relative="1" as="geometry">
            <mxPoint x="750" y="720" as="sourcePoint" />
            <mxPoint x="790" y="500" as="targetPoint" />
          </mxGeometry>
        </mxCell>
      </root>
    </mxGraphModel>
  </diagram>
</mxfile>
